<?xml version="1.0" encoding="utf-8"?>
<!-- Generator: Adobe Illustrator 16.0.0, SVG Export Plug-In . SVG Version: 6.00 Build 0)  -->
<!DOCTYPE svg PUBLIC "-//W3C//DTD SVG 1.1//EN" "http://www.w3.org/Graphics/SVG/1.1/DTD/svg11.dtd">
<svg version="1.1" xmlns="http://www.w3.org/2000/svg" xmlns:xlink="http://www.w3.org/1999/xlink" x="0px" y="0px"
	 width="141.73px" height="141.73px" viewBox="0 0 141.73 141.73" enable-background="new 0 0 141.73 141.73" xml:space="preserve">
<g id="Calque_1">
</g>
<g id="FOREGROUND">
	<path fill="#FFFFFF" d="M112.719,69.703c0,4.606-3.733,8.348-8.348,8.348c-4.604,0-8.348-3.742-8.348-8.348
		c0-4.611,3.744-8.35,8.348-8.35C108.985,61.353,112.719,65.092,112.719,69.703z"/>
	
		<line fill="none" stroke="#FFFFFF" stroke-width="2.0938" stroke-miterlimit="10" x1="32.18" y1="43.135" x2="69.022" y2="93.474"/>
	
		<line fill="none" stroke="#FFFFFF" stroke-width="2.0938" stroke-miterlimit="10" x1="69.936" y1="93.471" x2="103.765" y2="69.703"/>
	
		<line fill="none" stroke="#FFFFFF" stroke-width="2.0938" stroke-miterlimit="10" x1="103.765" y1="69.703" x2="80.083" y2="8.545"/>
	<line fill="none" stroke="#FFFFFF" stroke-width="2.0938" stroke-miterlimit="10" x1="80.083" y1="8.545" x2="68.76" y2="93.676"/>
	
		<line fill="none" stroke="#FFFFFF" stroke-width="2.0938" stroke-miterlimit="10" x1="80.083" y1="8.545" x2="23.521" y2="102.355"/>
	
		<line fill="none" stroke="#FFFFFF" stroke-width="2.0938" stroke-miterlimit="10" x1="24.257" y1="101.149" x2="118.085" y2="135.337"/>
	
		<line fill="none" stroke="#FFFFFF" stroke-width="2.0938" stroke-miterlimit="10" x1="104.371" y1="69.703" x2="116.683" y2="135.337"/>
	
		<line fill="none" stroke="#FFFFFF" stroke-width="2.0938" stroke-miterlimit="10" x1="127.388" y1="42.118" x2="32.18" y2="42.118"/>
	
		<line fill="none" stroke="#FFFFFF" stroke-width="2.0938" stroke-miterlimit="10" x1="127.388" y1="42.118" x2="104.371" y2="69.017"/>
	
		<line fill="none" stroke="#FFFFFF" stroke-width="2.0938" stroke-miterlimit="10" x1="69.936" y1="93.471" x2="117.604" y2="135.337"/>
	
		<line fill="none" stroke="#FFFFFF" stroke-width="2.0938" stroke-miterlimit="10" x1="68.76" y1="93.676" x2="24.257" y2="101.149"/>
	<path fill="#FFFFFF" d="M77.107,93.471c0,4.608-3.734,8.351-8.347,8.351c-4.604,0-8.348-3.742-8.348-8.351
		c0-4.61,3.744-8.348,8.348-8.348C73.373,85.123,77.107,88.86,77.107,93.471z"/>
	<path fill="#FFFFFF" d="M122.82,135.337c0,3.382-2.755,6.134-6.135,6.134c-3.39,0-6.143-2.752-6.143-6.134
		c0-3.389,2.753-6.134,6.143-6.134C120.065,129.203,122.82,131.948,122.82,135.337z"/>
	<path fill="#FFFFFF" d="M37.986,42.648c0,4.607-3.735,8.349-8.347,8.349c-4.605,0-8.349-3.742-8.349-8.349
		c0-4.611,3.744-8.349,8.349-8.349C34.251,34.299,37.986,38.038,37.986,42.648z"/>
	<path fill="#FFFFFF" d="M133.525,42.118c0,3.382-2.755,6.134-6.135,6.134c-3.387,0-6.141-2.752-6.141-6.134
		c0-3.389,2.754-6.134,6.141-6.134C130.771,35.983,133.525,38.729,133.525,42.118z"/>
	<path fill="#FFFFFF" d="M30.395,101.149c0,3.383-2.755,6.134-6.134,6.134c-3.389,0-6.142-2.751-6.142-6.134
		c0-3.389,2.753-6.134,6.142-6.134C27.64,95.016,30.395,97.761,30.395,101.149z"/>
	<path fill="#FFFFFF" d="M88.433,8.545c0,4.607-3.734,8.349-8.349,8.349c-4.604,0-8.347-3.742-8.347-8.349
		c0-4.611,3.744-8.349,8.347-8.349C84.698,0.196,88.433,3.935,88.433,8.545z"/>
</g>
</svg>
